REM DIRINDEX 1\2\4,1\2\5,1\2\6,1\3\7,1\3\8
REM DIRNAME folder01,folder02,folder03,folder04,folder05,folder06,folder07,folder08
TITLE ""
FILE "046_Proficiency Test11.mp3" MP3
  TRACK 01 AUDIO
    TITLE "0:"
    INDEX 01 00:00:00
  TRACK 02 AUDIO
    TITLE "6:cjc128_2392"
    INDEX 01 00:00:25
  TRACK 03 AUDIO
    TITLE "0:"
    INDEX 01 00:02:49
  TRACK 04 AUDIO
    TITLE "6:cjc128_2393"
    INDEX 01 00:03:06
  TRACK 05 AUDIO
    TITLE "0:"
    INDEX 01 00:05:01
  TRACK 06 AUDIO
    TITLE "4:cjc128_2394"
    INDEX 01 00:05:61
  TRACK 07 AUDIO
    TITLE "0:"
    INDEX 01 00:08:52
  TRACK 08 AUDIO
    TITLE "5:cjc128_2395"
    INDEX 01 00:12:36
  TRACK 09 AUDIO
    TITLE "0:"
    INDEX 01 00:15:40
  TRACK 10 AUDIO
    TITLE "6:cjc128_2396"
    INDEX 01 00:16:16
  TRACK 11 AUDIO
    TITLE "0:"
    INDEX 01 00:18:13
  TRACK 12 AUDIO
    TITLE "4:cjc128_2397"
    INDEX 01 00:19:03
  TRACK 13 AUDIO
    TITLE "0:"
    INDEX 01 00:21:29
  TRACK 14 AUDIO
    TITLE "5:cjc128_2398"
    INDEX 01 00:24:25
  TRACK 15 AUDIO
    TITLE "0:"
    INDEX 01 00:26:44
  TRACK 16 AUDIO
    TITLE "6:cjc128_2399"
    INDEX 01 00:27:38
  TRACK 17 AUDIO
    TITLE "0:"
    INDEX 01 00:29:44
  TRACK 18 AUDIO
    TITLE "4:cjc128_2400"
    INDEX 01 00:30:42
  TRACK 19 AUDIO
    TITLE "0:"
    INDEX 01 00:35:04
  TRACK 20 AUDIO
    TITLE "5:cjc128_2401"
    INDEX 01 00:40:44
  TRACK 21 AUDIO
    TITLE "0:"
    INDEX 01 00:45:39
  TRACK 22 AUDIO
    TITLE "6:cjc128_2402"
    INDEX 01 00:46:11
  TRACK 23 AUDIO
    TITLE "0:"
    INDEX 01 00:48:14
  TRACK 24 AUDIO
    TITLE "4:cjc128_2403"
    INDEX 01 00:49:02
  TRACK 25 AUDIO
    TITLE "0:"
    INDEX 01 00:53:74
  TRACK 26 AUDIO
    TITLE "5:cjc128_2404"
    INDEX 01 00:59:28
  TRACK 27 AUDIO
    TITLE "0:"
    INDEX 01 01:04:00
  TRACK 28 AUDIO
    TITLE "6:cjc128_2405"
    INDEX 01 01:04:54
  TRACK 29 AUDIO
    TITLE "0:"
    INDEX 01 01:06:53
  TRACK 30 AUDIO
    TITLE "4:cjc128_2406"
    INDEX 01 01:07:37
  TRACK 31 AUDIO
    TITLE "0:"
    INDEX 01 01:11:19
  TRACK 32 AUDIO
    TITLE "5:cjc128_2407"
    INDEX 01 01:16:03
  TRACK 33 AUDIO
    TITLE "0:"
    INDEX 01 01:20:08
  TRACK 34 AUDIO
    TITLE "6:cjc128_2408"
    INDEX 01 01:20:59
  TRACK 35 AUDIO
    TITLE "0:"
    INDEX 01 01:22:52
  TRACK 36 AUDIO
    TITLE "4:cjc128_2409"
    INDEX 01 01:23:38
  TRACK 37 AUDIO
    TITLE "0:"
    INDEX 01 01:28:20
  TRACK 38 AUDIO
    TITLE "5:cjc128_2410"
    INDEX 01 01:33:09
  TRACK 39 AUDIO
    TITLE "0:"
    INDEX 01 01:37:11
  TRACK 40 AUDIO
    TITLE "6:cjc128_2411"
    INDEX 01 01:37:60
  TRACK 41 AUDIO
    TITLE "0:"
    INDEX 01 01:39:61
  TRACK 42 AUDIO
    TITLE "4:cjc128_2412"
    INDEX 01 01:40:44
  TRACK 43 AUDIO
    TITLE "0:"
    INDEX 01 01:44:52
  TRACK 44 AUDIO
    TITLE "5:cjc128_2413"
    INDEX 01 01:49:69
  TRACK 45 AUDIO
    TITLE "0:"
    INDEX 01 01:54:29
  TRACK 46 AUDIO
    TITLE "6:cjc128_2414"
    INDEX 01 01:55:07
  TRACK 47 AUDIO
    TITLE "0:"
    INDEX 01 01:56:61
  TRACK 48 AUDIO
    TITLE "4:cjc128_2415"
    INDEX 01 01:57:37
  TRACK 49 AUDIO
    TITLE "0:"
    INDEX 01 02:02:01
  TRACK 50 AUDIO
    TITLE "5:cjc128_2416"
    INDEX 01 02:06:50
  TRACK 51 AUDIO
    TITLE "0:"
    INDEX 01 02:10:34
  TRACK 52 AUDIO
    TITLE "6:cjc128_2417"
    INDEX 01 02:11:10
  TRACK 53 AUDIO
    TITLE "0:"
    INDEX 01 02:13:09
  TRACK 54 AUDIO
    TITLE "4:cjc128_2418"
    INDEX 01 02:13:73
  TRACK 55 AUDIO
    TITLE "0:"
    INDEX 01 02:19:13
  TRACK 56 AUDIO
    TITLE "5:cjc128_2419"
    INDEX 01 02:24:46
  TRACK 57 AUDIO
    TITLE "0:"
    INDEX 01 02:29:08
  TRACK 58 AUDIO
    TITLE "6:cjc128_2420"
    INDEX 01 02:29:68
  TRACK 59 AUDIO
    TITLE "0:"
    INDEX 01 02:31:61
  TRACK 60 AUDIO
    TITLE "4:cjc128_2421"
    INDEX 01 02:32:47
  TRACK 61 AUDIO
    TITLE "0:"
    INDEX 01 02:35:49
  TRACK 62 AUDIO
    TITLE "5:cjc128_2422"
    INDEX 01 02:39:63
  TRACK 63 AUDIO
    TITLE "0:"
    INDEX 01 02:43:31
